mastitorrents.com
  
http://mastitorrents.com/forums/index.php




8b    d8    db    .dP"Y8 888888 88 888888  dP"Yb  88""Yb 88""Yb 888888 88b 88 

888888 .dP"Y8 
88b  d88   dPYb   `Ybo."   88   88   88   dP   Yb 88__dP 88__dP 88__   88Yb88   88 

  `Ybo." 
88YbdP88  dP__Yb  o.`Y8b   88   88   88   Yb   dP 88"Yb  88"Yb  88""   88 Y88   88 

  o.`Y8b 
88 YY 88 dP""""Yb 8bodP'   88   88   88    YbodP  88  Yb 88  Yb 888888 88  Y8   88 

  8bodP' 






MASTI TORRENTS RELEASERS [ MTR ]

    Where Quality Matters!











description:

[CODE][B]General
Complete name : Delhi Belly - 2011 - Xvid - 1CD - HQ DvdScr-Rip - Mp3 - E-subs - TDM -=MTR=- mastitorrents.avi
IMDB : http://www.imdb.com/title/tt1934231/
Format : AVI
Format/Info : Audio Video Interleave
File size : 688 MiB
Duration : 1h 39mn
Overall bit rate : 962 Kbps
Writing application : VirtualDubMod 1.5.10.3 | www.virtualdub-fr.org || (build 2550/release)
Writing library : VirtualDubMod build 2550/release
Source : DvD Screener @ Team Ictv ... Thnx A Lot
Ripper : KINGFISHER [TDT].[/B][/CODE]


[QUOTE][B][CENTER]Video
ID : 0
Format : MPEG-4 Visual
Format profile : Advanced Simple@L5
Format settings, BVOP : Yes
Format settings, QPel : No
Format settings, GMC : No warppoints
Format settings, Matrix : Default (H.263)
Muxing mode : Packed bitstream
Codec ID : XVID
Codec ID/Hint : XviD
Duration : 1h 39mn
Bit rate : 857 Kbps
Width : 624 pixels
Height : 288 pixels
Display aspect ratio : 2.2:1
Frame rate : 23.976 fps
Color space : YUV
Chroma subsampling : 4:2:0
Bit depth : 8 bits
Scan type : Progressive
Bits/(Pixel*Frame) : 0.199
Stream size : 612 MiB (89%)
Writing library : XviD 1.2.1 (UTC 2008-12-04)

Audio
ID : 1
Format : MPEG Audio
Format version : Version 1
Format profile : Layer 3
Mode : Joint stereo
Codec ID : 55
Codec ID/Hint : MP3
Duration : 1h 39mn
Bit rate mode : Constant
Bit rate : 96.0 Kbps
Channel(s) : 2 channels
Sampling rate : 32.0 KHz
Stream size : 68.6 MiB (10%)
Alignment : Aligned on interleaves
Interleave, duration : 42 ms (1.00 video frame)
Interleave, preload duration : 504 ms
Writing library : LAME3.98r
Encoding settings : -m j -V 4 -q 2 -lowpass 15.1 -b 96[/CENTER][/B][/QUOTE]





Screens/Covers:
 
http://bollywoodreleases.info/images/87200123495504845983.png 
http://bollywoodreleases.info/images/17318320727606663416.png 
http://bollywoodreleases.info/images/99020034538167553687.png 
http://bollywoodreleases.info/images/41657297721546010309.png 
http://bollywoodreleases.info/images/98025629685142152615.png 
http://bollywoodreleases.info/images/50973010527810350733.png 
http://bollywoodreleases.info/images/75162982891798414713.png 
http://bollywoodreleases.info/images/40745706862276421817.png 
http://bollywoodreleases.info/images/05848438014870930999.png 
http://bollywoodreleases.info/images/67220423551849058017.png 
http://bollywoodreleases.info/images/95287384907451631607.png






****check out my other releases****

 
http://thepiratebay.org/user/tdkdemon/













    <<<<<<<SUPERFAST RELEASES BROUGHT TO YOU BY>>>>>>

          


                                  Masti Torrent Releasers [ MTR ]


             8888b.  888888 8b    d8  dP"Yb  88b 88     88888 8b    d8 888888 

88""Yb 88888 
              8I  Yb 88__   88b  d88 dP   Yb 88Yb88     88    88b  d88   88   

88__dP    88 
              8I  dY 88""   88YbdP88 Yb   dP 88 Y88     88    88YbdP88   88   

88"Yb     88 
             8888Y"  888888 88 YY 88  YbodP  88  Y8     88888 88 YY 88   88   88  

Yb 88888 
